<!DOCTYPE svg PUBLIC "-//W3C//DTD SVG 1.1//EN" "http://www.w3.org/Graphics/SVG/1.1/DTD/svg11.dtd">
<!-- Uploaded to: SVG Repo, www.svgrepo.com, Transformed by: SVG Repo Mixer Tools -->
<svg version="1.1" id="Layer_1" xmlns="http://www.w3.org/2000/svg" xmlns:xlink="http://www.w3.org/1999/xlink" viewBox="0 0 512 512" xml:space="preserve" width="800px" height="800px" fill="#000000">
<g id="SVGRepo_bgCarrier" stroke-width="0"/>
<g id="SVGRepo_tracerCarrier" stroke-linecap="round" stroke-linejoin="round"/>
<g id="SVGRepo_iconCarrier"> <path style="fill:#D3D3D5;" d="M375.467,512h-307.2c-4.713,0-8.533-3.821-8.533-8.533V8.533C59.733,3.821,63.554,0,68.267,0h375.467 c4.713,0,8.533,3.821,8.533,8.533V435.2C452.267,477.615,417.882,512,375.467,512z"/> <g> <path style="fill:#BDBDC0;" d="M392.533,494.933H81.067c-2.356,0-4.267-1.91-4.267-4.267V0h-8.533 c-4.713,0-8.533,3.821-8.533,8.533v494.933c0,4.713,3.821,8.533,8.533,8.533h307.2c25.564,0,48.195-12.501,62.156-31.711 C424.958,489.491,409.386,494.933,392.533,494.933z"/> <rect x="59.733" y="51.2" style="fill:#BDBDC0;" width="392.533" height="8.533"/> </g> <path style="fill:#7A7C82;" d="M375.467,290.133H102.4c-4.713,0-8.533-3.821-8.533-8.533V76.8c0-4.713,3.821-8.533,8.533-8.533 h307.2c4.713,0,8.533,3.821,8.533,8.533v170.667C418.133,271.03,399.03,290.133,375.467,290.133z"/> <g> <path style="fill:#64666D;" d="M110.933,281.6V76.8c0-4.713,3.821-8.533,8.533-8.533H102.4c-4.713,0-8.533,3.821-8.533,8.533v204.8 c0,4.713,3.821,8.533,8.533,8.533h17.067C114.754,290.133,110.933,286.313,110.933,281.6z"/> <path style="fill:#64666D;" d="M179.2,273.067c-9.41,0-17.067-7.657-17.067-17.067V102.4c0-9.41,7.657-17.067,17.067-17.067h153.6 c9.41,0,17.067,7.657,17.067,17.067V256c0,9.41-7.657,17.067-17.067,17.067H179.2z"/> </g> <path style="fill:#ffe5fa;" d="M332.8,264.533H179.2c-4.713,0-8.533-3.821-8.533-8.533V102.4c0-4.713,3.821-8.533,8.533-8.533h153.6 c4.713,0,8.533,3.821,8.533,8.533V256C341.333,260.713,337.513,264.533,332.8,264.533z"/> <g> <polygon style="fill:#efe1ec;" points="282.311,264.533 341.333,205.511 341.333,151.467 228.267,264.533 "/> <path style="fill:#efe1ec;" d="M179.2,93.867c-4.713,0-8.533,3.821-8.533,8.533v151.467l160-160H179.2z"/> <path style="fill:#efe1ec;" d="M332.8,264.533c4.713,0,8.533-3.821,8.533-8.533v-33.422l-41.955,41.955H332.8z"/> </g> <path style="fill:#f89be7;" d="M204.8,341.333h-25.6v-25.6c0-4.713-3.821-8.533-8.533-8.533h-34.133 c-4.713,0-8.533,3.821-8.533,8.533v25.6h-25.6c-4.713,0-8.533,3.821-8.533,8.533V384c0,4.713,3.821,8.533,8.533,8.533H128v25.6 c0,4.713,3.821,8.533,8.533,8.533h34.133c4.713,0,8.533-3.821,8.533-8.533v-25.6h25.6c4.713,0,8.533-3.821,8.533-8.533v-34.133 C213.333,345.154,209.513,341.333,204.8,341.333z"/> <circle style="fill:#A7A7AB;" cx="315.733" cy="392.533" r="34.133"/> <circle style="fill:#f89be7;" cx="315.733" cy="392.533" r="25.6"/> <circle style="fill:#A7A7AB;" cx="384" cy="341.333" r="34.133"/> <circle style="fill:#f89be7;" cx="384" cy="341.333" r="25.6"/> <g> <path style="fill:#D3D3D5;" d="M415.258,412.477l-17.067-17.067c-3.125-3.124-8.19-3.124-11.314,0 c-3.124,3.124-3.124,8.19,0,11.313l17.067,17.067c3.254,3.253,8.748,3.035,11.74-0.459 C418.363,420.201,418.17,415.389,415.258,412.477z"/> <path style="fill:#D3D3D5;" d="M381.124,412.477c-3.125-3.124-8.19-3.124-11.314,0c-3.124,3.124-3.124,8.19,0,11.313l17.067,17.067 c3.254,3.253,8.748,3.035,11.74-0.459c2.681-3.131,2.487-7.942-0.425-10.854L381.124,412.477z"/> <path style="fill:#D3D3D5;" d="M364.058,429.543c-3.125-3.124-8.19-3.124-11.314,0c-3.124,3.124-3.124,8.19,0,11.313l17.067,17.067 c3.351,3.35,9.007,3.011,11.874-0.747c2.406-3.154,2.282-7.727-0.559-10.566L364.058,429.543z"/> <path style="fill:#D3D3D5;" d="M346.991,446.61c-3.125-3.124-8.19-3.124-11.314,0c-3.124,3.124-3.124,8.19,0,11.313l17.067,17.067 c3.254,3.253,8.748,3.035,11.74-0.459c2.681-3.131,2.487-7.942-0.425-10.854L346.991,446.61z"/> </g> <g> <path style="fill:#7A7C82;" d="M287.634,446.233c-3.333-3.332-8.735-3.332-12.068,0l-17.067,17.067 c-3.081,3.081-3.311,8.145-0.524,11.493c3.167,3.805,9.092,4.074,12.592,0.575l17.067-17.067 C290.966,454.969,290.966,449.565,287.634,446.233z"/> <path style="fill:#7A7C82;" d="M232.899,446.233l-17.067,17.067c-3.082,3.081-3.311,8.145-0.524,11.493 c3.167,3.804,9.091,4.074,12.591,0.575l17.067-17.067c3.333-3.332,3.333-8.735,0-12.067 C241.635,442.9,236.231,442.9,232.899,446.233z"/> </g> </g>
</svg>